# xmcd CD database file
#
# Track frame offsets:
#	150
#	56430
#	110163
#	160563
#	183621
#
# Disc length: 2934 seconds
#
# Revision: 0
# Processed by: cddbd v1.5.2PL0 Copyright (c) Steve Scherf et al.
# Submitted via: CDex 1.77
#
DISCID=3c0b7405
DTITLE=Cannonball Adderley - Milestones of a legend CD 05 in San Francisco
DYEAR=1959
DGENRE=Jazz
TTITLE0=This here
TTITLE1=Spontaneous Combustion
TTITLE2=Hi-Fly
TTITLE3=You got it !
TTITLE4=Bohemia after dark
EXTD=YEAR: 1959
EXTT0=
EXTT1=
EXTT2=
EXTT3=
EXTT4=
PLAYORDER=
